<mxfile host="app.diagrams.net" modified="2021-07-09T09:45:57.190Z" agent="5.0 (Macintosh; Intel Mac OS X 10_15_7) AppleWebKit/605.1.15 (KHTML, like Gecko) Version/14.1.1 Safari/605.1.15" etag="cmaVGV2ODKBwHvqeEGGd" version="14.8.5" type="github">
  <diagram id="G6BNjI7axVwe6SpNbhrn" name="Page-1">
    <mxGraphModel dx="946" dy="620" grid="1" gridSize="10" guides="1" tooltips="1" connect="1" arrows="1" fold="1" page="1" pageScale="1" pageWidth="827" pageHeight="1169" math="0" shadow="0">
      <root>
        <mxCell id="0" />
        <mxCell id="1" parent="0" />
        <mxCell id="nYr-fRGJlqaklRjXVoRJ-1" value="portal application" style="rounded=1;whiteSpace=wrap;html=1;fillColor=#d5e8d4;strokeColor=#82b366;" parent="1" vertex="1">
          <mxGeometry x="80" y="40" width="120" height="60" as="geometry" />
        </mxCell>
        <mxCell id="nYr-fRGJlqaklRjXVoRJ-3" value="module application" style="rounded=1;whiteSpace=wrap;html=1;fillColor=#dae8fc;strokeColor=#6c8ebf;" parent="1" vertex="1">
          <mxGeometry x="320" y="40" width="120" height="60" as="geometry" />
        </mxCell>
        <mxCell id="nYr-fRGJlqaklRjXVoRJ-4" value="launch" style="shape=singleArrow;whiteSpace=wrap;html=1;arrowWidth=0.5;arrowSize=0.23;fillColor=#f8cecc;strokeColor=none;" parent="1" vertex="1">
          <mxGeometry x="210" y="50" width="100" height="40" as="geometry" />
        </mxCell>
        <mxCell id="XBDtQ2iCLHml2MihTs0C-1" value="authorization &lt;br&gt;service" style="rounded=1;whiteSpace=wrap;html=1;fillColor=#fff2cc;strokeColor=#d6b656;" vertex="1" parent="1">
          <mxGeometry x="180" y="130" width="120" height="60" as="geometry" />
        </mxCell>
        <mxCell id="XBDtQ2iCLHml2MihTs0C-2" value="FHIR resource service" style="shape=datastore;whiteSpace=wrap;html=1;" vertex="1" parent="1">
          <mxGeometry x="340" y="220" width="80" height="80" as="geometry" />
        </mxCell>
        <mxCell id="XBDtQ2iCLHml2MihTs0C-3" value="" style="shape=doubleArrow;direction=south;whiteSpace=wrap;html=1;arrowWidth=0.35;arrowSize=0.25;fillColor=#e1d5e7;strokeColor=none;" vertex="1" parent="1">
          <mxGeometry x="360" y="110" width="40" height="100" as="geometry" />
        </mxCell>
        <mxCell id="XBDtQ2iCLHml2MihTs0C-4" value="OAuth 2.0" style="shape=singleArrow;direction=west;whiteSpace=wrap;html=1;arrowWidth=0.35;arrowSize=0.35;fillColor=#e1d5e7;strokeColor=none;" vertex="1" parent="1">
          <mxGeometry x="310" y="140" width="70" height="40" as="geometry" />
        </mxCell>
      </root>
    </mxGraphModel>
  </diagram>
</mxfile>
